<svg width="80" height="84" viewBox="0 0 80 84" fill="none" xmlns="http://www.w3.org/2000/svg">
<path d="M17 0.333345C22.3158 0.331881 27.5308 1.78319 32.0817 4.53042C36.6325 7.27766 40.346 11.2163 42.8208 15.9208C45.3211 12.3878 48.6328 9.50658 52.4777 7.51921C56.3227 5.53185 60.5885 4.49644 64.9167 4.50001H79.5V14.9167C79.5 22.0996 76.6466 28.9884 71.5675 34.0675C66.4884 39.1466 59.5996 42 52.4167 42H46.1667V46.1667H67V75.3333C67 77.5435 66.122 79.6631 64.5592 81.2259C62.9964 82.7887 60.8768 83.6667 58.6667 83.6667H25.3333C23.1232 83.6667 21.0036 82.7887 19.4408 81.2259C17.878 79.6631 17 77.5435 17 75.3333V46.1667H37.8333V37.8333H29.5C21.7645 37.8333 14.3459 34.7604 8.87606 29.2906C3.40625 23.8208 0.333344 16.4022 0.333344 8.66668V0.333345H17ZM58.6667 54.5H25.3333V75.3333H58.6667V54.5ZM71.1667 12.8333H64.9167C59.9439 12.8333 55.1747 14.8088 51.6584 18.3251C48.1421 21.8414 46.1667 26.6105 46.1667 31.5833V33.6667H52.4167C54.879 33.6667 57.3171 33.1817 59.592 32.2394C61.8668 31.2971 63.9338 29.916 65.6749 28.1749C67.416 26.4338 68.7971 24.3668 69.7394 22.092C70.6817 19.8171 71.1667 17.379 71.1667 14.9167V12.8333ZM17 8.66668H8.66668C8.66668 14.192 10.8616 19.4911 14.7686 23.3981C18.6756 27.3051 23.9747 29.5 29.5 29.5H37.8333C37.8333 23.9747 35.6384 18.6756 31.7314 14.7686C27.8244 10.8616 22.5254 8.66668 17 8.66668Z" fill="white"/>
</svg>
