<?xml version="1.0"?>
<svg width="640" height="480" xmlns="http://www.w3.org/2000/svg" xmlns:svg="http://www.w3.org/2000/svg" xmlns:xlink="http://www.w3.org/1999/xlink">
 <!-- Created with SVG-edit - https://github.com/SVG-Edit/svgedit-->
 <defs>
  <symbol height="76" id="svg_3" viewBox="0 0 88 76" width="88" xmlns="http://www.w3.org/2000/svg">
   <path d="m75.25,28.625c3.3139,-0.0041 6.491,-1.3224 8.8343,-3.6657c2.3433,-2.3433 3.6616,-5.5204 3.6657,-8.8343l0,-9.375l-9.375,0c-3.1996,0.00473 -6.2742,1.24263 -8.5844,3.4563c-1.6189,-2.93747 -3.9956,-5.38724 -6.8826,-7.09431c-2.8871,-1.70707 -6.179,-2.609034 -9.533,-2.61199l-9.375,0l0,9.375c0.0058,4.971 1.9831,9.7368 5.4981,13.2519c3.5151,3.515 8.2809,5.4923 13.2519,5.4981l3.125,0l0,40.625l-37.5,0l0,-15.625l3.125,0c3.3139,-0.0041 6.491,-1.3224 8.8343,-3.6657c2.3433,-2.3433 3.6616,-5.5204 3.6657,-8.8343l0,-9.375l-9.375,0c-3.1996,0.0047 -6.2742,1.2426 -8.5844,3.4562c-1.6189,-2.9374 -3.9956,-5.3871 -6.8826,-7.0942c-2.8871,-1.7071 -6.179,-2.609 -9.533,-2.612l-9.375,0l0,9.375c0.005789,4.971 1.98309,9.7368 5.49814,13.2519c3.51505,3.515 8.28086,5.4923 13.25186,5.4981l3.125,0l0,15.625l-21.875,0l0,6.25l87.5,0l0,-6.25l-15.625,0l0,-40.625l3.125,0zm-3.125,-9.375c0.0017,-1.6571 0.6607,-3.2458 1.8324,-4.4176c1.1717,-1.1717 2.7605,-1.8307 4.4176,-1.8324l3.125,0l0,3.125c-0.0017,1.6571 -0.6607,3.2458 -1.8324,4.4176c-1.1717,1.1717 -2.7605,1.8307 -4.4176,1.8324l-3.125,0l0,-3.125zm-43.75,25c0.0017,-1.6571 0.6607,-3.2458 1.8324,-4.4176c1.1718,-1.1717 2.7605,-1.8307 4.4176,-1.8324l3.125,0l0,3.125c-0.0017,1.6571 -0.6607,3.2458 -1.8324,4.4176c-1.1718,1.1717 -2.7605,1.8307 -4.4176,1.8324l-3.125,0l0,-3.125zm-6.25,3.125l-3.125,0c-3.3139,-0.0041 -6.491,-1.3224 -8.8343,-3.6657c-2.34328,-2.3433 -3.66157,-5.5204 -3.6657,-8.8343l0,-3.125l3.125,0c3.3139,0.0041 6.491,1.3224 8.8343,3.6657c2.3433,2.3433 3.6616,5.5204 3.6657,8.8343l0,3.125zm43.75,-25l-3.125,0c-3.3139,-0.0041 -6.491,-1.3224 -8.8343,-3.6657c-2.3433,-2.3433 -3.6616,-5.5204 -3.6657,-8.8343l0,-3.125l3.125,0c3.3139,0.00413 6.491,1.32242 8.8343,3.6657c2.3433,2.3433 3.6616,5.5204 3.6657,8.8343l0,3.125z" fill="white"/>
  </symbol>
  <symbol height="79" id="svg_6" viewBox="0 0 85 79" width="85" xmlns="http://www.w3.org/2000/svg">
   <path d="m79.8696,39.9538c-4.2176,0.985 -7.1765,4.3035 -7.89,8.2633l-16.7284,4.0271l4.502,-7.3568c1.1962,-1.9547 0.5756,-4.5327 -1.3791,-5.7289l-3.6606,-2.2402c0.4763,-0.5389 0.8243,-1.1075 1.194,-1.7117c6.6117,-10.8042 3.2191,-24.8973 -7.5851,-31.50895c-4.0237,-2.46751 -8.7115,-3.631649 -13.4221,-3.333166c-4.7106,0.298482 -9.2139,2.045006 -12.894,5.000666c-3.6801,2.95565 -6.3571,6.97605 -7.665,11.51135c-1.3078,4.5352 -1.1826,9.3637 0.3587,13.8251l-13.61485,22.2481c-1.19619,1.9547 -0.575587,4.5327 1.37912,5.7288l31.98603,19.5741c1.9547,1.1961 4.5327,0.5755 5.7289,-1.3792l8.9388,-14.6069l24.8061,-5.9716c2.4374,3.2013 6.5606,4.8452 10.7072,3.8167l-4.7617,-20.1578m-56.8579,-22.4355c0.2987,-0.6477 0.5401,-1.2815 0.9098,-1.8857c4.1975,-6.85926 13.1919,-9.02447 20.0511,-4.8269c6.8593,4.1975 9.0245,13.1919 4.8269,20.0511c-0.3697,0.6042 -0.8243,1.1076 -1.2651,1.6683m-12.2883,36.4446l-24.878,-15.2243l15.2242,-24.878l24.878,15.2242l-15.2242,24.8781z" fill="white"/>
  </symbol>
 </defs>
 <g class="layer">
  <title>Layer 1</title>
  <use id="svg_4" transform="matrix(3.10645, 0, 0, 3.13449, -66.5233, -59.4578)" x="117.954454" xlink:href="#svg_3" y="76.158946"/>
  <g id="svg_5"/>
  <use id="svg_7" transform="matrix(3.34918, 0, 0, 3.10086, -124.919, -96.7409)" x="40.009762" xlink:href="#svg_6" y="35.151527"/>
  <g id="svg_8"/>
 </g>
</svg>