<?xml version="1.0"?>
<svg width="640" height="480" xmlns="http://www.w3.org/2000/svg" xmlns:svg="http://www.w3.org/2000/svg" xmlns:xlink="http://www.w3.org/1999/xlink">
 <!-- Created with SVG-edit - https://github.com/SVG-Edit/svgedit-->
 <defs>
  <symbol height="151" id="svg_2" viewBox="0 0 121 151" width="121" xmlns="http://www.w3.org/2000/svg">
   <path d="m103.037,41.1375c-0.639,-0.3924 -1.167,-0.943 -1.531,-1.5989c-0.365,-0.6558 -0.554,-1.3945 -0.55,-2.1449c-2.0748,-20.7687 -19.5185,-37.3937 -40.706,-37.3937c-21.1937,0 -39.0625,16.2062 -40.7187,37.3937c-0.0455,0.7392 -0.2554,1.4588 -0.6143,2.1065c-0.359,0.6477 -0.8581,1.207 -1.4608,1.6373c-10.3937,7.475 -17.4562,19.5312 -17.4562,33.2375c0,18.6937 12.8812,34.9 30.3312,39.475c2.9063,0.831 6.2376,1.25 7.0626,0.412c2.0812,-1.25 4.9875,-11.637 3.7437,-13.712c-0.8375,-1.25 -3.3313,-2.4937 -6.65,-3.325c-10.3875,-2.9063 -17.875,-12.05 -17.875,-23.2687c0,-6.2313 2.5,-11.6313 6.2375,-16.2c1.6865,-2.1016 3.8164,-3.8047 6.2375,-4.9876c4.5625,-2.5 7.0625,-7.0625 7.0625,-12.0499c0,-2.5 0.4125,-4.9876 1.25,-7.4751c3.3188,-9.5625 12.0438,-16.625 22.85,-16.625c10.8,0 19.5312,7.0625 22.85,16.625c0.825,2.4938 1.25,4.9876 1.25,7.4751c0,4.9874 2.4813,9.5562 7.0625,12.0499c2.4875,1.25 4.15,2.9063 6.2313,4.9876c3.9852,4.458 6.2022,10.2203 6.2312,16.2c-0.005,6.3891 -2.545,12.5152 -7.062,17.0335c-4.5172,4.5184 -10.6426,7.0598 -17.0318,7.0665c-15.375,0 -27.4249,12.4687 -27.4249,27.8437l0,15.788c0,2.906 0.4125,6.231 1.25,7.062c1.6625,1.669 12.4687,1.669 14.1249,0c0.8313,-0.831 1.2501,-4.156 1.2501,-7.062l0,-16.207c0,-5.812 4.9812,-10.8 10.7999,-10.8c22.4378,0 40.7188,-18.281 40.7188,-40.7185c-0.013,-13.3 -7.081,-25.35 -17.463,-32.825z" fill="white"/>
  </symbol>
  <symbol height="88" id="svg_5" viewBox="0 0 102 88" width="102" xmlns="http://www.w3.org/2000/svg">
   <path d="m79.9188,72.0937c0.04,-2.5974 2.1618,-4.6548 4.7592,-4.6148c2.5973,0.04 4.6547,2.1618 4.6147,4.7592c-0.04,2.5973 -2.1618,4.6547 -4.7591,4.6147c-2.5974,-0.04 -4.6548,-2.1618 -4.6148,-4.7591zm4.9276,-15.551c-6.4055,-0.0986 -11.9719,3.6638 -14.4591,9.1534l-17.1464,-0.2641c2.1852,-3.6386 3.4619,-7.8968 3.532,-12.447l0.2887,-18.7478c0.1062,-6.8937 5.7973,-12.4122 12.6911,-12.306l1.3084,0.0201c2.3169,5.5637 7.7648,9.4957 14.1703,9.5944c8.6318,0.133 15.7306,-6.7507 15.8636,-15.3825c0.133,-8.6318 -6.7505,-15.730842 -15.3823,-15.863793c-6.4055,-0.09866 -11.9719,3.663713 -14.4591,9.153403l-1.3084,-0.02015c-13.807,-0.21266 -25.1694,10.80504 -25.3821,24.61204l-0.2887,18.7478c-0.1062,6.8937 -5.7974,12.4121 -12.6911,12.306l-1.3084,-0.0202c-2.3169,-5.5637 -7.7649,-9.4957 -14.1703,-9.5944c-8.63183,-0.1329 -15.730872,6.7508 -15.863823,15.3826c-0.13295,8.6317 6.750723,15.7308 15.382523,15.8637c6.4055,0.0987 11.9719,-3.6637 14.4591,-9.1534l40.1124,0.6179c2.3169,5.5636 7.7648,9.4957 14.1703,9.5943c8.6318,0.133 15.7309,-6.7507 15.8639,-15.3825c0.133,-8.6318 -6.7508,-15.7308 -15.3826,-15.8638zm0.6978,-45.3071c2.5974,0.04 4.6548,2.1618 4.6148,4.7591c-0.04,2.5974 -2.1618,4.6548 -4.7591,4.6148c-2.5974,-0.04 -4.6548,-2.1618 -4.6148,-4.7591c0.04,-2.5974 2.1618,-4.6548 4.7591,-4.6148zm-74.3672,59.7993c0.04,-2.5974 2.1618,-4.6548 4.7591,-4.6148c2.5974,0.04 4.6548,2.1618 4.6148,4.7592c-0.04,2.5973 -2.1618,4.6547 -4.7592,4.6147c-2.5973,-0.04 -4.6547,-2.1618 -4.6147,-4.7591z" fill="white"/>
  </symbol>
 </defs>
 <g class="layer">
  <title>Layer 1</title>
  <use id="svg_3" transform="matrix(2.00753, 0, 0, 2.03521, 0.192908, -21.7088)" x="45.004157" xlink:href="#svg_2" y="51.232328"/>
  <g id="svg_4"/>
  <use fill="#3f007f" id="svg_6" transform="matrix(2.32306, 0, 0, 2.18883, -323.304, -260.457)" x="271.533755" xlink:href="#svg_5" y="233.375892"/>
  <g id="svg_7"/>
 </g>
</svg>