<svg width="55" height="57" viewBox="0 0 55 57" fill="none" xmlns="http://www.w3.org/2000/svg">
<path d="M45.1111 11.1898L45.1406 11.1818L45.154 11.1845L33.4129 0.877515L18.5991 5.82265L18.5857 5.81995L18.6285 5.84952L6.44262 9.93747L0.814202 37.8124L22.156 56.6274L49.1263 47.5674L54.7547 19.6925L45.1111 11.1898ZM21.3347 50.5756L12.8635 43.1047L14.7523 33.7505L7.06396 27.0653L9.43033 15.3458L25.5749 29.5756L21.3347 50.5756ZM12.0154 12.2831L22.0938 8.89246L30.3228 16.1122L40.7245 12.6404L48.7285 19.6961L28.2376 26.5774L12.0154 12.2831ZM47.5295 35.2708L37.9099 38.4264L36.0279 47.7471L25.2626 51.3617L29.4988 30.3818L49.8999 23.5312L47.5295 35.2708Z" fill="#0F2C47"/>
</svg>
