<svg width="41" height="58" viewBox="0 0 41 58" fill="none" xmlns="http://www.w3.org/2000/svg">
<path d="M9.08003 19.6027C10.2304 19.1828 10.7976 17.8634 10.3522 16.6433C9.90684 15.4232 8.62305 14.7795 7.47269 15.1994C6.32232 15.6193 5.75515 16.9387 6.20051 18.1588C6.64588 19.3789 7.92966 20.0226 9.08003 19.6027ZM15.1958 14.8752C16.2942 17.8842 15.5346 21.0931 13.4987 23.1149L16.4388 31.1693C17.6999 29.5758 19.3865 28.3156 21.4017 27.58L29.7051 24.549C32.7584 23.4345 34.2797 19.8955 33.0976 16.6573L32.8732 16.0427C30.0136 15.8078 27.3654 13.8429 26.267 10.8339C24.7869 6.77921 26.6846 2.36478 30.5076 0.969264C34.3306 -0.42625 38.6259 1.72758 40.106 5.78229C41.2043 8.79122 40.4447 12.0001 38.4088 14.022L38.6332 14.6366C41.0007 21.1223 37.9633 28.1879 31.8482 30.4201L23.5449 33.4511C20.4916 34.5656 18.9703 38.1045 20.1524 41.3428L20.3768 41.9574C23.2364 42.1923 25.8846 44.1572 26.983 47.1662C28.4631 51.2209 26.5654 55.6353 22.7424 57.0308C18.9194 58.4263 14.6241 56.2725 13.144 52.2178C12.0457 49.2089 12.8053 45.9999 14.8412 43.9781L7.9631 25.1356C5.10345 24.9007 2.45522 22.9358 1.35687 19.9269C-0.123216 15.8721 1.77445 11.4577 5.59746 10.0622C9.42048 8.66668 13.7158 10.8205 15.1958 14.8752ZM35.2623 7.55037C34.817 6.33028 33.5332 5.68654 32.3828 6.10646C31.2325 6.52637 30.6653 7.84577 31.1107 9.06585C31.556 10.2859 32.8398 10.9297 33.9902 10.5098C35.1405 10.0898 35.7077 8.77045 35.2623 7.55037ZM20.8672 51.8936C22.0175 51.4737 22.5847 50.1543 22.1393 48.9342C21.694 47.7141 20.4102 47.0704 19.2598 47.4903C18.1095 47.9102 17.5423 49.2296 17.9877 50.4497C18.433 51.6698 19.7168 52.3135 20.8672 51.8936Z" fill="#0F2C47"/>
</svg>
