<svg width="76" height="75" viewBox="0 0 76 75" fill="none" xmlns="http://www.w3.org/2000/svg">
<path d="M74.7977 69.6237L57.5923 64.5055C57.3032 64.4195 57.0218 64.5102 56.9282 64.8251L55.6833 69.0098C55.6061 69.2694 55.722 69.5324 56.0726 69.6367L73.275 74.754C73.5702 74.8418 73.84 74.7898 73.9386 74.4583L75.1835 70.2736C75.2698 69.9836 75.1446 69.763 74.7879 69.6568L74.7994 69.6182L74.7977 69.6237ZM66.3395 15.1954C66.3607 15.304 66.3767 15.4079 66.3854 15.5699L50.946 67.4713C50.8967 67.637 50.8056 67.7181 50.7386 67.7523C50.6719 67.7915 50.5954 67.8157 50.5149 67.823C50.4344 67.8303 50.352 67.8206 50.2741 67.7946L0.502787 52.9888C0.385931 52.9541 0.272152 52.9202 0.220932 52.8448C0.179512 52.7806 0.15261 52.71 0.141921 52.6375C0.131232 52.565 0.136989 52.4921 0.158829 52.4235L15.6302 0.414351C15.6927 0.204425 15.8634 0.08081 16.0487 0.0878428L65.9953 14.9457C66.1183 14.9823 66.2766 15.0805 66.321 15.1448L66.3079 15.189L66.3395 15.1954ZM7.24491 49.0594C7.18575 49.2583 7.25084 49.467 7.41523 49.5671L46.2944 61.1326C46.4883 61.1332 46.652 61.0105 46.7161 60.7951L59.1802 18.8955C59.2402 18.6939 59.1704 18.4897 59.0021 18.3915L20.1322 6.82872C19.9435 6.83274 19.777 6.94254 19.7137 7.15523L7.23958 49.0548L7.24491 49.0594ZM30.0373 30.6592C32.0362 31.2538 33.0101 32.0757 33.8208 33.6488C33.9383 33.9062 34.2149 34.0456 34.5001 33.9531L38.4358 32.3578C38.7026 32.3048 38.7489 31.9578 38.6813 31.7573C37.3564 29.0661 34.9247 26.8996 31.2776 25.8147C26.3881 24.3602 22.0447 25.4584 19.4554 28.9304C18.5412 30.1468 17.7921 31.8211 17.0904 34.18C16.3887 36.5389 16.1025 38.3449 16.2476 39.8824C16.5067 44.2439 19.5568 47.4934 24.4463 48.9479C28.1364 50.0456 31.3446 49.5568 33.8867 48.1001C34.0859 47.9369 34.2068 47.6992 34.0263 47.4621L31.5892 43.9861C31.4033 43.7895 31.1266 43.7072 30.8782 43.8558C29.3091 44.742 27.8665 45.0344 25.8399 44.4316C23.6689 43.7858 22.2949 42.3397 22.1699 40.228C22.0722 39.0264 22.3743 37.6731 22.878 35.9798C23.3833 34.2811 23.8939 33.071 24.6394 32.0841C25.9197 30.4806 27.8232 30.0005 30.0373 30.6592Z" fill="#0F2C47"/>
</svg>
